# xmcd
#
# Track frame offsets:
#	150
#	18425
#	32869
#	52423
#	69876
#	91584
#	110681
#	127170
#	145423
#	159036
#	181225
#
# Disc length: 2617 seconds
#
# Revision: 0
# Processed by: cddbd v1.4PL0 Copyright (c) Steve Scherf et al.
# Submitted via: EasyCDDAExtractor 4.6.0.1
#
DISCID=930a370b
DTITLE=Greg Koch - and the Tone Controls - Double the Gristle
DYEAR=1997
DGENRE=Blues
TTITLE0=Forever at Last
TTITLE1=Good Old Days
TTITLE2=All the Same
TTITLE3=Blackhawk Suite
TTITLE4=Rain, Sleet or Snow
TTITLE5=Flyover Country
TTITLE6=Lost and Found
TTITLE7=Come and Gone
TTITLE8=Dylan the Villian
TTITLE9=Give and Take
TTITLE10=Malice Aforethought
EXTD=
EXTT0=
EXTT1=
EXTT2=
EXTT3=
EXTT4=
EXTT5=
EXTT6=
EXTT7=
EXTT8=
EXTT9=
EXTT10=
PLAYORDER=
